<svg width="94" height="99" viewBox="0 0 94 99" fill="none" xmlns="http://www.w3.org/2000/svg">
<g filter="url(#filter0_f_231_1309)">
<path d="M103.066 44.9153C103.201 45.0554 103.339 45.2081 103.52 45.3774C107.628 41.2323 111.562 37.0079 114.846 32.2074C118.165 27.3863 119.824 21.9757 120.675 16.2725C120.751 15.7853 120.638 15.274 120.556 14.7823C120.429 14.0259 120.544 13.3601 121.226 12.8964C121.397 12.7804 121.585 12.6867 121.775 12.658C121.9 12.6306 122.072 12.6975 122.193 12.7753C123.301 13.4729 124.507 14.0834 125.467 14.9441C125.972 15.3952 126.302 16.3029 126.313 17.0064C126.336 18.7138 126.258 20.4432 125.963 22.1291C125.55 24.4157 124.895 26.6644 124.347 28.9286L124.372 28.9232C124.396 29.0354 124.424 29.1601 124.451 29.2848L124.426 29.2902C124.345 29.5172 124.267 29.7565 124.187 29.9834L124.263 29.9144L124.221 29.9628C123.708 30.8991 123.18 31.8257 122.667 32.762L122.699 32.7288C122.611 32.8657 122.524 33.0026 122.436 33.1395L122.478 33.0911C122.39 33.228 122.303 33.3649 122.215 33.5018L122.244 33.4562C122.157 33.5931 122.069 33.73 121.982 33.8669L122.011 33.8212C121.923 33.9581 121.836 34.095 121.748 34.2319L121.778 34.1863C121.69 34.3232 121.602 34.4601 121.515 34.597L121.544 34.5514C121.457 34.6882 121.369 34.8251 121.282 34.962L121.311 34.9164C121.223 35.0533 121.136 35.1902 121.048 35.3271L121.077 35.2814C120.99 35.4183 120.902 35.5552 120.815 35.6921L120.841 35.634C120.754 35.7709 120.666 35.9078 120.569 36.0599L120.608 35.9991C120.52 36.136 120.433 36.2728 120.335 36.4249L120.374 36.3641C120.287 36.501 120.199 36.6379 120.102 36.79L120.141 36.7292C120.053 36.8661 119.956 37.0182 119.868 37.1551L119.907 37.0942C119.82 37.2311 119.722 37.3832 119.635 37.5201L119.674 37.4593C119.586 37.5961 119.489 37.7483 119.401 37.8852L119.44 37.8243C119.353 37.9612 119.256 38.1133 119.168 38.2502L119.207 38.1894L118.937 38.6277L118.989 38.5641C118.4 39.3341 117.826 40.1139 117.237 40.8838L117.274 40.8105C115.841 42.3804 114.439 43.9697 112.989 45.5174C110.274 48.3888 107.513 51.2311 104.786 54.1053C104.106 54.8169 103.505 55.5897 102.858 56.3332C102.546 56.4018 102.247 56.4676 101.947 56.5334C101.884 56.9002 101.834 57.2642 101.755 57.6213C101.581 57.7774 101.408 57.946 101.234 58.1021C100.995 58.2068 100.757 58.3115 100.506 58.419C100.341 58.5598 100.176 58.7007 100.011 58.8416C99.7364 58.9019 99.4745 58.9595 99.2127 59.0171C99.2149 59.2649 99.2046 59.5155 99.2096 59.7759C99.0792 59.896 98.9363 60.019 98.8059 60.1392C98.7478 60.1127 98.6896 60.0863 98.6163 60.0501L98.7767 60.1848C98.9113 60.0245 99.0488 59.8766 99.1807 59.7038C99.1937 59.4657 99.2094 59.24 99.2224 59.0018C99.4718 58.947 99.7309 58.877 99.9775 58.8097L100.47 58.3746C100.724 58.2796 100.977 58.1846 101.243 58.0869C101.418 57.9308 101.59 57.7622 101.753 57.6089C101.816 57.2421 101.879 56.8753 101.942 56.5085C102.241 56.4426 102.54 56.3768 102.827 56.3138C103.339 55.966 103.851 55.6181 104.353 55.2855L104.315 55.2938C103.365 56.261 102.501 57.3266 101.461 58.1829C97.9799 61.0789 94.5227 64.0221 90.8956 66.7282C84.471 71.5134 77.8849 76.0989 70.7482 79.7859C68.6826 80.8545 66.4791 81.6527 64.3308 82.5827L64.339 82.6201C64.2268 82.6448 64.1021 82.6722 63.9899 82.6969L63.9816 82.6595C63.0597 83.1628 62.1749 83.7757 61.2033 84.1724C55.338 86.5079 49.2958 88.098 42.9913 88.674C40.4041 88.9161 37.8645 89.553 35.2867 89.8977C29.5966 90.6522 24.0353 90.1497 18.8887 87.4908C12.67 84.2963 9.80639 78.0505 11.1204 71.1865C11.678 68.2536 12.558 65.4196 14.0592 62.8543C16.7682 58.2325 19.4441 53.5788 22.4601 49.1641C26.843 42.7625 32.449 37.4646 38.41 32.5329C46.617 25.7479 55.3733 19.7963 64.8541 14.9403C68.5791 13.0362 72.4005 11.3332 76.5069 10.391C76.9807 10.2868 77.4807 10.2421 77.9475 10.1656L78.4767 12.5721C79.1485 12.4766 79.7704 12.3921 80.3397 12.3062C80.6892 11.4581 80.479 10.6808 80.9072 9.89385C81.2145 9.32956 81.4921 9.04632 81.9784 8.93939C87.2705 7.80177 92.6311 7.62943 97.8721 8.93434C103.956 10.446 108.697 13.874 111.2 19.8463C112.301 22.4797 112.167 25.2544 111.63 27.9866C110.822 32.0989 109.065 35.8185 106.891 39.3683L106.902 39.4181C106.889 39.2381 106.863 39.0608 106.834 38.871L106.783 38.8169L106.843 38.9084L106.264 39.5455L106.305 39.4971C106.218 39.634 106.121 39.7861 106.033 39.923L106.072 39.8622C105.984 39.9991 105.897 40.136 105.8 40.2881L105.839 40.2272C105.751 40.3641 105.654 40.5162 105.566 40.6531L105.605 40.5923C105.518 40.7292 105.42 40.8813 105.333 41.0182L105.372 40.9573C105.284 41.0942 105.187 41.2463 105.099 41.3832L105.138 41.3224L104.866 41.7482L104.905 41.6874C104.817 41.8243 104.72 41.9764 104.632 42.1133L104.671 42.0525C104.584 42.1894 104.487 42.3415 104.399 42.4784L104.438 42.4175C104.273 42.6761 104.107 42.9346 103.932 43.2084L103.983 43.1449C102.853 44.6614 101.725 46.1904 100.595 47.7069C100.434 47.8077 100.258 47.8987 100.097 47.9994C100.224 48.1022 100.351 48.2049 100.478 48.3077C100.509 48.0917 100.543 47.8882 100.562 47.675C101.408 46.7699 102.265 45.8496 103.111 44.9444L103.053 44.918L103.066 44.9153ZM33.6271 39.493C33.6271 39.493 33.5398 39.5122 33.5024 39.5204C33.5522 39.5094 33.6091 39.4708 33.6465 39.4626L33.5787 39.4513C33.5787 39.4513 33.6118 39.4833 33.6173 39.5082L33.6271 39.493ZM34.0766 48.4919C33.9571 48.6619 33.8349 48.8195 33.7155 48.9896C33.5242 49.0709 33.3205 49.1549 33.1319 49.2486C33.1259 49.4591 33.1047 49.6598 33.0987 49.8703C32.8199 50.0885 32.5535 50.3039 32.2747 50.522C31.9254 50.7165 31.576 50.911 31.2266 51.1055C31.2027 51.2938 31.1662 51.4847 31.1423 51.673C31.1308 51.8585 31.1318 52.0413 31.1203 52.2269C31.0829 52.2351 31.0509 52.2682 31.0135 52.2765C31.0275 52.2211 31.054 52.163 31.0679 52.1077C31.0761 52.1451 31.0968 52.1797 31.1175 52.2144C31.1013 52.0219 31.1004 51.8391 31.0842 51.6466C31.1358 51.4653 31.175 51.2868 31.2239 51.093C31.558 50.8888 31.8949 50.6971 32.2291 50.4929C32.5079 50.2747 32.7992 50.0538 33.0628 49.8259C33.0688 49.6154 33.0748 49.405 33.0808 49.1945C33.2873 49.1229 33.4813 49.0542 33.6851 48.9701C33.8142 48.7849 33.9462 48.612 34.0781 48.4392C34.0532 48.4447 34.0227 48.4253 33.9951 48.4183C34.0255 48.4377 34.0559 48.4572 34.0766 48.4919ZM103.318 54.3236C103.38 54.1922 103.443 54.0608 103.505 53.9294C103.96 53.6202 104.436 53.3457 104.842 52.9949C105.68 52.2878 106.498 51.546 107.315 50.8042C107.297 50.5466 107.283 50.3015 107.265 50.0439C107.797 50.2015 108.127 50.0375 108.156 49.456C109.012 48.9538 109.92 48.5058 110.147 47.3971C110.433 47.1512 110.716 46.8929 111.002 46.6471L111.908 45.9512C113.21 44.3838 114.512 42.8164 115.815 41.249C115.844 41.0857 115.889 40.9321 115.918 40.7688C116.333 40.4554 116.745 40.1295 117.142 39.7938C117.199 39.6375 117.241 39.4714 117.298 39.3151C117.33 39.1642 117.362 39.0134 117.379 38.8528C117.469 38.7283 117.547 38.6066 117.637 38.4822C117.707 38.3231 117.779 38.1765 117.836 38.0202C117.845 38.0576 117.853 38.095 117.861 38.1324C117.853 38.095 117.832 38.0603 117.812 38.0257C117.77 38.1917 117.715 38.3605 117.673 38.5266C117.583 38.651 117.505 38.7727 117.415 38.8971C117.383 39.048 117.348 39.1864 117.316 39.3373C117.261 39.5061 117.219 39.6722 117.165 39.841C116.75 40.1544 116.351 40.4775 115.939 40.8034C115.907 40.9543 115.865 41.1204 115.833 41.2712C114.502 42.6488 113.171 44.0265 111.87 45.4236C111.784 45.5078 111.897 45.7836 111.895 45.9539C111.265 45.7656 111.036 46.0905 111.005 46.6596C110.719 46.9054 110.436 47.1637 110.162 47.4068C109.502 48.088 108.844 48.7817 108.171 49.4657C107.859 49.6519 107.55 49.8506 107.243 50.0618C107.26 50.3194 107.278 50.577 107.295 50.8346C106.275 50.8891 104.26 52.5477 103.508 53.9419C103.448 54.0857 103.373 54.2199 103.311 54.3513L103.29 54.3166L103.318 54.3236ZM104.074 49.9745C104.074 49.9745 104.158 49.9429 104.205 49.9194C104.161 49.9553 104.119 50.0037 104.075 50.0396C104.1 50.0341 104.128 50.0411 104.155 50.0481C104.125 50.0286 104.104 49.994 104.074 49.9745ZM107.6 36.8856C107.6 36.8856 107.55 36.8966 107.543 36.9243C107.571 36.9313 107.614 36.948 107.642 36.955C107.617 36.9604 107.592 36.9659 107.567 36.9714C107.574 36.9437 107.591 36.9008 107.598 36.8732L107.6 36.8856ZM113.929 36.1214C113.948 36.3264 113.967 36.5313 113.983 36.7239C113.859 36.8164 113.733 36.8964 113.61 36.9889C112.612 37.9796 111.52 38.8993 110.647 39.9803C106.561 44.9964 101.562 49.0758 96.8861 53.4897C96.1063 54.2232 95.4853 55.1441 94.7925 55.9761C94.755 55.9844 94.7231 56.0175 94.6857 56.0257C94.6608 56.0312 94.6249 55.9868 94.5972 55.9799C94.665 55.9911 94.7231 56.0175 94.7909 56.0288C95.16 55.6862 95.5139 55.3338 95.901 55.0134C102.06 50.0905 107.885 44.8359 112.662 38.5045C113.016 38.0345 113.274 37.4811 113.567 36.9722C113.69 36.8797 113.817 36.7997 113.937 36.6947C113.921 36.5022 113.92 36.3194 113.916 36.1241L114.023 36.1922L113.929 36.1214ZM109.341 45.5744L109.319 45.4747L109.37 45.5288L109.262 45.5133L109.341 45.5744ZM28.1794 56.5075C28.0836 56.607 28.0003 56.7037 27.9045 56.8032C27.8544 56.9318 27.8043 57.0605 27.7417 57.1919C26.5658 57.908 26.2336 59.1313 25.8709 60.3352C25.6719 60.7973 25.4701 61.2469 25.271 61.709L24.7496 62.072C24.756 62.2797 24.7598 62.475 24.7662 62.6827L24.8201 62.7493L24.7802 62.6273C24.7792 62.4445 24.7755 62.2493 24.7621 62.0692C24.9174 61.9436 25.0825 61.8027 25.2379 61.677C25.4369 61.215 25.6387 60.7654 25.8377 60.3033C26.4562 59.2523 27.0775 58.2137 27.7085 57.16C27.7586 57.0313 27.8212 56.8999 27.8714 56.7713C27.9796 56.669 28.0878 56.5668 28.1809 56.4548C28.1781 56.4424 28.2003 56.4244 28.21 56.4092C28.2031 56.4369 28.1836 56.4673 28.1794 56.5075ZM116.572 36.965C116.404 37.0934 116.236 37.2218 116.068 37.3502L116.109 37.8903C115.763 38.0447 115.431 38.1963 115.104 38.3728C115.056 38.5139 115.012 38.6675 114.967 38.8211C114.928 38.9996 114.876 39.1809 114.837 39.3595C114.468 39.7021 114.109 40.0295 113.739 40.3721C113.728 40.5576 113.704 40.7459 113.692 40.9314C113.371 41.1329 113.049 41.3343 112.727 41.5358C112.698 41.6991 112.684 41.8721 112.654 42.0355C112.348 42.2467 112.056 42.4676 111.753 42.6912C111.729 42.8795 111.692 43.0705 111.668 43.2588C110.992 43.0939 110.888 43.4565 110.954 43.9911C110.668 44.237 110.379 44.4703 110.078 44.7065L109.986 44.7007L110.048 44.687C110.346 44.4384 110.635 44.205 110.936 43.9689C111.169 43.7216 111.399 43.4617 111.63 43.2019C111.654 43.0136 111.678 42.8254 111.702 42.6371C112.005 42.4135 112.299 42.205 112.591 41.9841C112.62 41.8208 112.65 41.6574 112.679 41.4941C113.001 41.2926 113.335 41.0884 113.641 40.8773C113.653 40.6917 113.664 40.5062 113.676 40.3207C114.045 39.9781 114.414 39.6355 114.771 39.2957C114.81 39.1171 114.864 38.9483 114.903 38.7697C114.96 38.6134 115.02 38.4695 115.065 38.3159C115.41 38.1616 115.758 38.0197 116.103 37.8654C116.068 37.7033 116.042 37.526 116.031 37.3585C116.206 37.2024 116.381 37.0463 116.543 36.8929C116.518 36.8984 116.493 36.9039 116.465 36.8969C116.496 36.9164 116.526 36.9358 116.557 36.9553L116.572 36.965ZM100.553 46.5658C100.53 46.401 100.516 46.221 100.493 46.0561C100.586 45.9442 100.679 45.8322 100.775 45.7327C101.266 45.2326 101.745 44.7351 102.239 44.2474C102.22 44.2778 102.188 44.311 102.168 44.3414L102.166 44.2112C102.166 44.2112 102.217 44.2653 102.235 44.2875C101.763 44.6396 101.279 44.9944 100.808 45.3465L100.738 45.3878L100.851 45.3632C100.841 45.4961 100.843 45.6263 100.833 45.7592C100.74 45.8712 100.644 45.9706 100.551 46.0826C100.562 46.2501 100.57 46.4052 100.565 46.5631C100.496 46.7222 100.414 46.884 100.344 47.0431C99.4971 46.8765 99.2302 47.3273 99.2217 48.0612C98.8733 48.4384 98.5373 48.813 98.1917 49.2027C97.8433 49.58 97.4949 49.9572 97.1465 50.3345C96.5036 50.502 96.1373 50.857 96.2409 51.5662C95.9235 51.7275 95.5935 51.8916 95.2761 52.0529C95.3327 52.132 95.4045 52.2208 95.4611 52.2998C95.7067 52.0497 95.9621 51.7844 96.2078 51.5343C96.5105 51.1279 96.8133 50.7214 97.1161 50.315C97.4645 49.9377 97.8129 49.5605 98.1612 49.1832C98.5096 48.806 98.8429 48.419 99.1913 48.0417C99.5756 47.7089 99.9723 47.3732 100.354 47.0279C100.436 46.8661 100.508 46.7194 100.59 46.5576L100.553 46.5658ZM97.2845 46.8009L97.3618 46.2611C97.3618 46.2611 97.4187 46.2225 97.4561 46.2142C97.4421 46.2696 97.4254 46.3125 97.4114 46.3678C97.4032 46.3304 97.3852 46.3082 97.37 46.2985C97.3558 46.4715 97.3568 46.6543 97.3425 46.8274C97.3061 47.0184 97.2697 47.2094 97.2208 47.4032C96.8964 47.5922 96.5844 47.7784 96.2627 47.9799C96.2333 48.1432 96.2066 48.319 96.1771 48.4823C95.1477 48.7348 94.5232 49.3427 94.4211 50.424C94.1299 50.6449 93.8386 50.8658 93.55 51.0992C93.4957 51.268 93.444 51.4493 93.3897 51.6181C93.1984 51.6994 93.0099 51.7931 92.8186 51.8744C92.7448 52.0736 92.6834 52.2701 92.6096 52.4694C92.3587 52.5768 92.1078 52.6843 91.857 52.7917C91.8819 52.7862 91.9096 52.7932 91.9373 52.8002C91.9068 52.7807 91.8764 52.7613 91.846 52.7418C92.1024 52.6593 92.3559 52.5643 92.6248 52.4791C92.6709 52.2729 92.7295 52.0639 92.7757 51.8577C92.9642 51.7639 93.1528 51.6702 93.3413 51.5765C93.3957 51.4076 93.45 51.2388 93.5072 51.0825C93.8109 50.8588 94.105 50.6504 94.4087 50.4267C94.9848 49.7772 95.5706 49.1124 96.1315 48.4531C96.1609 48.2898 96.1904 48.1265 96.2198 47.9632C96.5442 47.7742 96.8812 47.5824 97.1876 47.3713C97.2241 47.1802 97.2508 47.0044 97.2872 46.8134L97.2845 46.8009ZM98.2476 45.831C98.3159 45.6068 98.394 45.3675 98.4624 45.1433L98.5481 45.1767L98.4608 45.1959C98.4147 45.4021 98.3658 45.5959 98.3169 45.7896C98.2865 45.7702 98.2588 45.7632 98.2284 45.7437C98.2339 45.7687 98.2394 45.7936 98.2448 45.8185L98.2476 45.831ZM96.5119 44.2389C96.5082 44.0436 96.492 43.8512 96.4883 43.6559C96.5169 43.8457 96.5456 44.0354 96.5618 44.2279C96.47 44.405 96.3755 44.5696 96.2837 44.7466C95.9897 44.955 95.6929 45.151 95.3989 45.3595C95.339 45.5033 95.2764 45.6347 95.2166 45.7786C94.8158 46.0367 94.3515 46.2433 94.0322 46.575C92.6484 48.0688 91.4178 49.725 89.9138 51.0884C85.9206 54.6854 81.8073 58.1519 77.7298 61.6629C76.6532 62.5924 75.538 63.4651 74.4282 64.3627C76.5425 63.218 78.6692 62.0707 80.4755 60.5362C84.0117 57.5365 87.4555 54.4132 90.7694 51.1747C92.4263 49.5555 93.7157 47.5727 95.1737 45.7619C95.2335 45.618 95.2934 45.4741 95.356 45.3427C95.6625 45.1315 95.9565 44.9231 96.2478 44.7022C96.3451 44.5501 96.4299 44.4007 96.5271 44.2486L96.5119 44.2389ZM24.8389 59.2681C24.9763 59.1203 25.1012 58.9752 25.2386 58.8273C25.2681 58.664 25.3003 58.5131 25.3297 58.3498C25.323 58.2597 25.3287 58.167 25.322 58.077C25.4424 58.0897 25.5629 58.1024 25.6833 58.1151L25.7511 58.1264L25.7374 58.064C25.6015 58.1593 25.4656 58.2545 25.3352 58.3747C25.3182 58.5353 25.2985 58.6834 25.269 58.8467C25.1344 59.0071 24.9872 59.1702 24.8526 59.3305C24.8775 59.325 24.9176 59.3292 24.9453 59.3362C24.9149 59.3168 24.872 59.3 24.8389 59.2681ZM79.4507 72.4605C79.4507 72.4605 79.5118 72.3817 79.5437 72.3486C79.5243 72.379 79.5021 72.397 79.4674 72.4177L79.3759 72.477L79.4507 72.4605ZM44.7701 30.0101C44.6382 30.1829 44.5214 30.3654 44.3895 30.5382C41.4695 32.8927 38.5494 35.2472 35.6446 37.6115C35.4892 37.7371 35.483 38.0653 35.4174 38.3019C35.0613 38.4064 34.7024 38.4984 34.3463 38.6028C34.3767 38.6223 34.3974 38.6569 34.4279 38.6764C34.3752 38.6749 34.3101 38.6761 34.2548 38.6622C34.2895 38.6415 34.3116 38.6235 34.3588 38.6001L35.4326 38.3116C35.7393 37.9828 36.0129 37.622 36.3583 37.3499C38.6931 35.4248 41.043 33.5094 43.3653 31.587C43.7426 31.2818 44.0453 30.8754 44.3868 30.5258C44.5187 30.353 44.6381 30.1829 44.7825 30.0074C45.0611 29.9069 45.3424 29.8189 45.6209 29.7185C46.008 29.3981 46.4075 29.0749 46.807 28.7518C46.9292 28.5942 47.0487 28.4241 47.1709 28.2665C47.3485 28.1229 47.5357 27.9641 47.7133 27.8205C47.7507 27.8122 47.7924 27.7639 47.8298 27.7556C47.8547 27.7502 47.8906 27.7945 47.921 27.814L47.7148 27.7678C47.5275 27.9267 47.343 28.098 47.1557 28.2568C47.0487 28.4241 46.9444 28.6039 46.8374 28.7712C46.4379 29.0943 46.0509 29.4147 45.6486 29.7254C45.3673 29.8134 45.0888 29.9139 44.795 30.0046L44.7701 30.0101ZM89.5672 59.4388C89.5672 59.4388 89.638 59.3448 89.6699 59.3117C89.6906 59.3463 89.7113 59.381 89.7417 59.4004C89.6849 59.4391 89.6253 59.4653 89.5684 59.5039C89.5934 59.4985 89.6086 59.5082 89.6363 59.5152C89.6183 59.493 89.6003 59.4708 89.5824 59.4486L89.5672 59.4388ZM81.4657 14.0977C81.2592 14.1693 81.0375 14.2311 80.831 14.3026L80.7644 14.3565L80.8767 14.3318C81.0679 14.2505 81.2495 14.1845 81.456 14.1129L81.4754 14.0825L81.4657 14.0977ZM80.8152 15.8355L81.0942 16.1532C80.9947 16.0574 80.898 15.9741 80.7985 15.8784C80.6698 15.8282 80.5509 15.7629 80.4222 15.7127C80.405 15.991 80.385 16.2569 80.3678 16.5351C79.8625 17.0907 79.367 17.631 78.8422 18.217C78.9293 18.3155 79.012 18.4541 79.1337 18.532C79.8541 19.014 80.3899 19.6674 80.1457 20.5185C79.8918 21.3848 79.0048 21.0962 78.3288 21.2318C76.3478 21.6151 74.2536 21.8404 72.4406 22.6312C68.7773 24.2211 65.0987 25.8012 61.6351 27.8831C54.7079 32.0468 48.083 36.5755 41.9275 41.8113C35.3946 47.3524 29.81 53.6391 26.2241 61.5255C24.674 64.9382 23.5017 68.4639 23.3258 72.241C23.2066 74.79 23.5667 77.2597 25.0921 79.3817C25.6968 80.2291 26.4979 81.1379 27.4138 81.4986C30.6512 82.7866 34.1118 83.3066 37.4405 82.1563C41.4855 80.757 45.4716 79.1484 49.3017 77.2474C59.3339 72.2832 68.7632 66.3013 77.7178 59.5872C84.9788 54.1474 91.5477 47.9971 96.797 40.5423C100.013 35.966 102.811 31.1548 104.169 25.6798C104.659 23.6897 104.804 21.5534 104.767 19.4831C104.74 17.1623 103.278 15.7453 101.038 15.2446C97.8737 14.5286 94.7025 13.958 91.4288 14.7041C90.2193 14.9701 88.9456 14.8841 87.6673 14.9561C87.6641 14.5254 87.6494 14.2803 87.6472 14.0324C86.0754 14.0774 84.6749 12.4639 82.8245 13.9165C82.4533 12.7041 82.1564 11.7106 81.8595 10.7171C81.7403 10.7695 81.6086 10.8245 81.4867 10.8644C81.3197 12.4828 81.7308 13.8172 83.3718 14.3844C83.5346 15.3028 81.4005 14.7525 82.6851 16.1955C81.7428 15.8929 81.2716 17.3168 80.354 16.4728C80.5152 16.2544 80.6887 16.0332 80.8498 15.8148L80.8152 15.8355ZM20.7958 55.3861C20.8356 55.5081 20.8783 55.6425 20.9182 55.7644C20.8783 55.6425 20.8384 55.5206 20.7985 55.3986C20.9027 55.2188 21.0097 55.0515 21.1265 54.869L21.8247 54.7154C21.8055 54.6282 21.789 54.5533 21.7698 54.4661C21.5521 54.6054 21.3442 54.7296 21.1265 54.869C21.0195 55.0363 20.9125 55.2036 20.8055 55.3709L20.7958 55.3861ZM76.9847 70.5193C77.2226 69.9964 77.6975 69.4214 76.5641 69.0824C76.3212 69.9985 76.0879 70.8995 75.8058 71.9941C76.9389 71.7973 76.8547 71.0576 77.0166 70.4861L76.9847 70.5193ZM58.6269 20.6233C58.6558 20.6953 58.6848 20.7674 58.7109 20.827C58.8551 20.7692 58.9992 20.7113 59.1309 20.6562C59.1199 20.6064 59.109 20.5565 59.0855 20.5094L58.6117 20.6136L58.6269 20.6233ZM78.776 72.0076C78.7346 71.9383 78.6932 71.869 78.6421 71.8149C78.6421 71.8149 78.5299 71.8396 78.5354 71.8645C78.5269 71.9448 78.5433 72.0196 78.5598 72.0944C78.6346 72.0779 78.7039 72.0366 78.776 72.0076ZM81.9268 10.3101C81.9268 10.3101 82.0336 10.2605 82.0378 10.2204C82.0448 10.1927 81.9937 10.1386 81.9703 10.0914C81.9161 10.1425 81.8593 10.1812 81.8052 10.2323L81.9241 10.2977L81.9268 10.3101ZM77.8947 69.1296C77.8947 69.1296 77.8075 69.1488 77.7853 69.1668C77.7658 69.1972 77.7768 69.2471 77.7877 69.297C77.8501 69.2833 77.9097 69.2571 77.9693 69.2309C77.9486 69.1962 77.9279 69.1616 77.9072 69.1269L77.8947 69.1296ZM75.5696 20.9889L75.4932 21.058L75.6012 21.0734L75.582 20.9861L75.5696 20.9889ZM85.4505 68.7752L85.5518 68.7007L85.4286 68.6755L85.4533 68.7877L85.4505 68.7752ZM83.3935 11.4516C83.3935 11.4516 83.4145 11.3686 83.409 11.3436C83.4063 11.3312 83.3536 11.3297 83.3135 11.3254C83.3217 11.3628 83.2925 11.4084 83.298 11.4334C83.3008 11.4459 83.3534 11.4474 83.3935 11.4516Z" fill="#1AE3FF" fill-opacity="0.56"/>
<path d="M79.4697 10.1963C79.4697 10.1963 79.5001 10.2157 79.5278 10.2227L79.4697 10.1963Z" fill="#1AE3FF" fill-opacity="0.56"/>
<path d="M79.5139 10.2136C79.5139 10.2136 79.464 10.2246 79.4391 10.23C79.4391 10.23 79.4613 10.2121 79.4585 10.1996L79.5014 10.2163L79.5139 10.2136Z" fill="#1AE3FF" fill-opacity="0.56"/>
<path d="M64.3569 82.5892C64.2447 82.6139 64.1325 82.6386 64.0078 82.666L64.016 82.7034C64.1407 82.676 64.2654 82.6486 64.3776 82.6239L64.3694 82.5865L64.3569 82.5892Z" fill="#1AE3FF" fill-opacity="0.56"/>
<path d="M84.1774 14.1811C84.2136 14.1078 84.247 14.022 84.2707 13.9515C84.3468 14.0001 84.5004 14.0447 84.4989 14.0974C84.4932 14.1901 84.4223 14.2841 84.3667 14.3878C84.3003 14.324 84.234 14.2602 84.1677 14.1963L84.1774 14.1811Z" fill="#1AE3FF" fill-opacity="0.56"/>
<path d="M77.0014 70.4763C76.9268 70.3751 76.8398 70.2766 76.768 70.1878C76.8179 70.1768 76.8498 70.1437 76.8969 70.1202C76.9243 70.2449 76.9545 70.3821 76.9819 70.5068L77.0138 70.4736L77.0014 70.4763Z" fill="#1AE3FF" fill-opacity="0.56"/>
</g>
<defs>
<filter id="filter0_f_231_1309" x="-8" y="-8" width="153.656" height="111.3" filterUnits="userSpaceOnUse" color-interpolation-filters="sRGB">
<feFlood flood-opacity="0" result="BackgroundImageFix"/>
<feBlend mode="normal" in="SourceGraphic" in2="BackgroundImageFix" result="shape"/>
<feGaussianBlur stdDeviation="4" result="effect1_foregroundBlur_231_1309"/>
</filter>
</defs>
</svg>
