<svg width="26" height="21" viewBox="0 0 26 21" fill="none" xmlns="http://www.w3.org/2000/svg">
<path d="M0.368 20.584V13.896C0.368 11.3733 0.778667 9.02667 1.6 6.856C2.48 4.62666 3.976 2.456 6.088 0.343999L9.696 3.248C8.05333 4.94933 6.93867 6.53333 6.352 8C5.76533 9.408 5.472 10.904 5.472 12.488L3.272 10.816H10.136V20.584H0.368ZM15.768 20.584V13.896C15.768 11.3733 16.1787 9.02667 17 6.856C17.88 4.62666 19.376 2.456 21.488 0.343999L25.096 3.248C23.4533 4.94933 22.3387 6.53333 21.752 8C21.1653 9.408 20.872 10.904 20.872 12.488L18.672 10.816H25.536V20.584H15.768Z" fill="black"/>
</svg>
