<svg width="26" height="21" viewBox="0 0 26 21" fill="none" xmlns="http://www.w3.org/2000/svg">
<path d="M25.632 20.584V13.896C25.632 11.3733 25.2213 9.02667 24.4 6.856C23.52 4.62666 22.024 2.456 19.912 0.343999L16.304 3.248C17.9467 4.94933 19.0613 6.53333 19.648 8C20.2347 9.408 20.528 10.904 20.528 12.488L22.728 10.816H15.864V20.584H25.632ZM10.232 20.584V13.896C10.232 11.3733 9.82133 9.02667 9 6.856C8.12 4.62666 6.624 2.456 4.512 0.343999L0.903999 3.248C2.54667 4.94933 3.66133 6.53333 4.248 8C4.83467 9.408 5.128 10.904 5.128 12.488L7.328 10.816H0.464V20.584H10.232Z" fill="black"/>
</svg>
