<svg width="17" height="17" viewBox="0 0 17 17" fill="none" xmlns="http://www.w3.org/2000/svg">
<path d="M9.20866 8.24603L10.0027 7.4527C10.1362 7.32357 10.3151 7.25205 10.5008 7.25353C10.6865 7.25501 10.8642 7.32938 10.9957 7.46062C11.1271 7.59186 11.2017 7.76947 11.2035 7.95519C11.2052 8.14091 11.1339 8.31989 11.005 8.45358L9.00112 10.4574C8.93549 10.5235 8.85746 10.5758 8.77151 10.6116C8.68557 10.6473 8.59341 10.6657 8.50033 10.6657C8.40724 10.6657 8.31508 10.6473 8.22914 10.6116C8.14319 10.5758 8.06516 10.5235 7.99953 10.4574L5.99566 8.45358C5.92989 8.38772 5.87774 8.30955 5.84219 8.22354C5.80663 8.13753 5.78837 8.04535 5.78843 7.95228C5.7885 7.85921 5.80689 7.76706 5.84257 7.6811C5.87825 7.59514 5.93051 7.51705 5.99637 7.45128C6.06222 7.38552 6.14039 7.33337 6.2264 7.29781C6.31242 7.26226 6.40459 7.24399 6.49766 7.24406C6.59073 7.24412 6.68288 7.26252 6.76884 7.2982C6.8548 7.33387 6.93289 7.38613 6.99866 7.45199L7.79199 8.24603V4.25033C7.79199 4.06246 7.86662 3.8823 7.99946 3.74946C8.1323 3.61662 8.31246 3.54199 8.50033 3.54199C8.68819 3.54199 8.86835 3.61662 9.00119 3.74946C9.13403 3.8823 9.20866 4.06246 9.20866 4.25033V8.24603ZM4.25033 12.042H12.7503C12.9382 12.042 13.1184 12.1166 13.2512 12.2495C13.384 12.3823 13.4587 12.5625 13.4587 12.7503C13.4587 12.9382 13.384 13.1184 13.2512 13.2512C13.1184 13.384 12.9382 13.4587 12.7503 13.4587H4.25033C4.06246 13.4587 3.8823 13.384 3.74946 13.2512C3.61662 13.1184 3.54199 12.9382 3.54199 12.7503C3.54199 12.5625 3.61662 12.3823 3.74946 12.2495C3.8823 12.1166 4.06246 12.042 4.25033 12.042Z" fill="white"/>
</svg>
