<svg width="603" height="293" viewBox="0 0 603 293" fill="none" xmlns="http://www.w3.org/2000/svg">
<path d="M227.04 188.07C168.638 163.53 121.182 136.839 91.6542 113.555C76.8801 101.906 66.6758 91.1722 61.787 82.0415C56.8593 72.8384 57.534 65.6794 63.3349 60.7993C69.1358 55.9193 80.2611 53.1515 96.4972 52.8412C112.606 52.5334 133.029 54.6696 156.431 59.0611C203.203 67.8379 261.362 85.5249 319.764 110.065C378.167 134.605 425.622 161.296 455.15 184.58C469.924 196.23 480.129 206.963 485.017 216.094C489.945 225.297 489.27 232.456 483.47 237.336C477.669 242.216 466.543 244.984 450.307 245.294C434.199 245.602 413.775 243.466 390.373 239.074C343.601 230.297 285.442 212.61 227.04 188.07Z" stroke="#00068A" stroke-opacity="0.03" stroke-width="4"/>
<path d="M254.869 185.393C196.467 160.853 149.011 134.162 119.483 110.878C104.709 99.2286 94.5049 88.4953 89.6161 79.3646C84.6884 70.1615 85.3631 63.0025 91.164 58.1224C96.9649 53.2424 108.09 50.4746 124.326 50.1643C140.435 49.8565 160.858 51.9927 184.26 56.3842C231.032 65.161 289.191 82.848 347.594 107.388C405.996 131.928 453.451 158.62 482.979 181.903C497.753 193.553 507.958 204.286 512.847 213.417C517.774 222.62 517.1 229.779 511.299 234.659C505.498 239.539 494.372 242.307 478.136 242.617C462.028 242.925 441.604 240.789 418.202 236.397C371.43 227.62 313.271 209.933 254.869 185.393Z" stroke="#00068A" stroke-opacity="0.03" stroke-width="4"/>
<path d="M282.698 182.717C224.296 158.177 176.84 131.486 147.312 108.202C132.538 96.5527 122.334 85.8193 117.445 76.6887C112.518 67.4856 113.192 60.3265 118.993 55.4465C124.794 50.5664 135.919 47.7987 152.155 47.4884C168.264 47.1806 188.687 49.3168 212.09 53.7082C258.861 62.4851 317.02 80.172 375.423 104.712C433.825 129.252 481.281 155.944 510.808 179.227C525.583 190.877 535.787 201.61 540.676 210.741C545.603 219.944 544.929 227.103 539.128 231.983C533.327 236.863 522.201 239.631 505.965 239.941C489.857 240.249 469.433 238.113 446.031 233.721C399.26 224.944 341.101 207.258 282.698 182.717Z" stroke="#00068A" stroke-opacity="0.03" stroke-width="4"/>
</svg>
