<svg width="16" height="16" viewBox="0 0 16 16" fill="none" xmlns="http://www.w3.org/2000/svg">
<circle cx="8" cy="8" r="7.75" stroke="#000113" stroke-width="0.5"/>
<path d="M9.1903 5.03711H6.79918C6.33197 5.03766 5.88405 5.22352 5.55371 5.55392C5.22337 5.88432 5.03758 6.33227 5.03711 6.79948L5.03711 9.19059C5.03766 9.6578 5.22352 10.1057 5.55392 10.4361C5.88432 10.7664 6.33227 10.9522 6.79948 10.9527H9.19059C9.6578 10.9521 10.1057 10.7663 10.4361 10.4359C10.7664 10.1055 10.9522 9.65751 10.9527 9.1903V6.79918C10.9521 6.33197 10.7663 5.88405 10.4359 5.55371C10.1055 5.22337 9.65751 5.03758 9.1903 5.03711V5.03711ZM10.3577 9.1903C10.3577 9.3436 10.3275 9.49541 10.2688 9.63704C10.2102 9.77868 10.1242 9.90737 10.0158 10.0158C9.90737 10.1242 9.77868 10.2102 9.63704 10.2688C9.49541 10.3275 9.3436 10.3577 9.1903 10.3577H6.79918C6.48962 10.3576 6.19276 10.2346 5.97389 10.0157C5.75503 9.79675 5.63207 9.49986 5.63207 9.1903V6.79918C5.63215 6.48962 5.75518 6.19276 5.9741 5.97389C6.19303 5.75503 6.48992 5.63207 6.79948 5.63207H9.19059C9.50016 5.63215 9.79701 5.75518 10.0159 5.9741C10.2347 6.19303 10.3577 6.48992 10.3577 6.79948V9.19059V9.1903Z" fill="#000113"/>
<path d="M7.99433 6.46484C7.58882 6.46547 7.20011 6.62685 6.91341 6.91362C6.6267 7.20038 6.46539 7.58912 6.46484 7.99462C6.46531 8.40023 6.62663 8.78909 6.91341 9.07592C7.20019 9.36276 7.58902 9.52415 7.99462 9.5247C8.40028 9.52422 8.78919 9.36287 9.07603 9.07603C9.36287 8.78919 9.52422 8.40028 9.5247 7.99462C9.52407 7.58902 9.3626 7.20022 9.07571 6.91349C8.78882 6.62677 8.39993 6.46553 7.99433 6.46514V6.46484ZM7.99433 8.92973C7.7464 8.92973 7.50862 8.83124 7.33331 8.65593C7.158 8.48062 7.05951 8.24285 7.05951 7.99492C7.05951 7.74699 7.158 7.50922 7.33331 7.3339C7.50862 7.15859 7.7464 7.0601 7.99433 7.0601C8.24225 7.0601 8.48003 7.15859 8.65534 7.3339C8.83065 7.50922 8.92914 7.74699 8.92914 7.99492C8.92914 8.24285 8.83065 8.48062 8.65534 8.65593C8.48003 8.83124 8.24225 8.92973 7.99433 8.92973Z" fill="#000113"/>
<path d="M9.52765 6.84302C9.73007 6.84302 9.89417 6.67893 9.89417 6.4765C9.89417 6.27408 9.73007 6.10999 9.52765 6.10999C9.32523 6.10999 9.16113 6.27408 9.16113 6.4765C9.16113 6.67893 9.32523 6.84302 9.52765 6.84302Z" fill="#000113"/>
</svg>
