<svg width="193" height="376" viewBox="0 0 193 376" fill="none" xmlns="http://www.w3.org/2000/svg">
<g filter="url(#filter0_f_231_1261)">
<path d="M224.454 237.94C197.919 265.989 169.813 287.398 145.881 299.369C133.907 305.359 123.078 308.935 114.076 309.858C105.065 310.782 98.1539 309.032 93.6049 304.728C89.0559 300.425 86.9253 293.622 87.3484 284.573C87.7712 275.534 90.7417 264.523 96.0584 252.236C106.685 227.677 126.504 198.428 153.039 170.379C179.573 142.331 207.679 120.921 231.612 108.95C243.585 102.96 254.414 99.3842 263.417 98.4611C272.428 97.5371 279.338 99.2874 283.887 103.591C288.437 107.894 290.567 114.698 290.144 123.746C289.721 132.786 286.751 143.796 281.434 156.084C270.807 180.643 250.988 209.892 224.454 237.94Z" stroke="#00068A" stroke-width="4"/>
<path d="M206.011 221.665C179.477 249.713 151.371 271.123 127.439 283.094C115.465 289.084 104.636 292.66 95.6332 293.583C86.6225 294.507 79.7115 292.757 75.1625 288.453C70.6135 284.15 68.4829 277.346 68.9061 268.298C69.3288 259.258 72.2993 248.248 77.616 235.961C88.2425 211.402 108.062 182.152 134.596 154.104C161.131 126.056 189.237 104.646 213.169 92.6747C225.143 86.6851 235.972 83.109 244.974 82.1859C253.985 81.2619 260.896 83.0122 265.445 87.3157C269.994 91.6192 272.125 98.4225 271.702 107.471C271.279 116.511 268.308 127.521 262.992 139.808C252.365 164.367 232.546 193.617 206.011 221.665Z" stroke="#00068A" stroke-width="4"/>
<path d="M187.569 205.39C161.034 233.438 132.928 254.848 108.996 266.819C97.0222 272.808 86.1934 276.385 77.1909 277.308C68.1801 278.232 61.2692 276.481 56.7201 272.178C52.1711 267.874 50.0405 261.071 50.4637 252.023C50.8865 242.983 53.8569 231.973 59.1737 219.685C69.8002 195.126 89.6192 165.877 116.154 137.829C142.689 109.78 170.794 88.3707 194.727 76.3994C206.701 70.4099 217.529 66.8337 226.532 65.9106C235.543 64.9866 242.454 66.7369 247.003 71.0404C251.552 75.3439 253.682 82.1473 253.259 91.1954C252.836 100.235 249.866 111.246 244.549 123.533C233.923 148.092 214.104 177.341 187.569 205.39Z" stroke="#00068A" stroke-width="4"/>
</g>
<defs>
<filter id="filter0_f_231_1261" x="36.4111" y="51.6711" width="267.785" height="272.427" filterUnits="userSpaceOnUse" color-interpolation-filters="sRGB">
<feFlood flood-opacity="0" result="BackgroundImageFix"/>
<feBlend mode="normal" in="SourceGraphic" in2="BackgroundImageFix" result="shape"/>
<feGaussianBlur stdDeviation="6" result="effect1_foregroundBlur_231_1261"/>
</filter>
</defs>
</svg>
