<svg width="65" height="123" viewBox="0 0 65 123" fill="none" xmlns="http://www.w3.org/2000/svg">
<g filter="url(#filter0_f_605_358)">
<path d="M73.0776 77.4558C64.4426 86.5835 55.2919 93.5557 47.4923 97.4571C43.5905 99.4089 40.052 100.579 37.1007 100.882C34.1474 101.185 31.8499 100.614 30.3273 99.1741C28.8048 97.7337 28.1079 95.4713 28.2466 92.5057C28.3852 89.5423 29.3578 85.9443 31.0903 81.9404C34.5535 73.9365 41.0079 64.4135 49.6429 55.2858C58.278 46.1582 67.4287 39.186 75.2283 35.2845C79.13 33.3328 82.6686 32.1622 85.6198 31.8596C88.5731 31.5568 90.8707 32.1272 92.3932 33.5676C93.9157 35.008 94.6126 37.2704 94.4739 40.2359C94.3353 43.1994 93.3627 46.7974 91.6302 50.8013C88.167 58.8051 81.7127 68.3282 73.0776 77.4558Z" stroke="#00068A"/>
<path d="M67.0825 72.1648C58.4474 81.2925 49.2968 88.2647 41.4971 92.1661C37.5954 94.1178 34.0568 95.2884 31.1056 95.591C28.1523 95.8939 25.8547 95.3234 24.3322 93.8831C22.8097 92.4427 22.1128 90.1803 22.2515 87.2147C22.3901 84.2513 23.3627 80.6533 25.0952 76.6494C28.5584 68.6455 35.0127 59.1225 43.6478 49.9948C52.2828 40.8672 61.4335 33.895 69.2332 29.9935C73.1349 28.0418 76.6734 26.8712 79.6247 26.5686C82.578 26.2658 84.8755 26.8362 86.3981 28.2766C87.9206 29.7169 88.6175 31.9794 88.4788 34.9449C88.3402 37.9084 87.3676 41.5064 85.6351 45.5103C82.1719 53.5141 75.7175 63.0372 67.0825 72.1648Z" stroke="#00068A"/>
<path d="M61.0864 66.8738C52.4514 76.0014 43.3007 82.9736 35.501 86.8751C31.5993 88.8268 28.0608 89.9974 25.1095 90.3C22.1562 90.6029 19.8586 90.0324 18.3361 88.5921C16.8136 87.1517 16.1167 84.8892 16.2554 81.9237C16.394 78.9602 17.3666 75.3623 19.0991 71.3584C22.5623 63.3545 29.0167 53.8315 37.6517 44.7038C46.2868 35.5762 55.4374 28.604 63.2371 24.7025C67.1388 22.7508 70.6774 21.5802 73.6286 21.2776C76.5819 20.9747 78.8795 21.5452 80.402 22.9856C81.9245 24.4259 82.6214 26.6884 82.4827 29.6539C82.3441 32.6174 81.3715 36.2153 79.639 40.2193C76.1758 48.2231 69.7215 57.7462 61.0864 66.8738Z" stroke="#00068A"/>
</g>
<defs>
<filter id="filter0_f_605_358" x="11.7383" y="16.699" width="87.2529" height="88.7617" filterUnits="userSpaceOnUse" color-interpolation-filters="sRGB">
<feFlood flood-opacity="0" result="BackgroundImageFix"/>
<feBlend mode="normal" in="SourceGraphic" in2="BackgroundImageFix" result="shape"/>
<feGaussianBlur stdDeviation="2" result="effect1_foregroundBlur_605_358"/>
</filter>
</defs>
</svg>
