<svg width="24" height="24" viewBox="0 0 24 24" fill="none" xmlns="http://www.w3.org/2000/svg">
<circle cx="12" cy="12" r="11.75" stroke="#000113" stroke-width="0.5"/>
<path d="M9.748 17C11.668 17 12.448 16.124 12.448 14.768C12.448 13.652 11.68 12.908 10.072 12.848V12.728C11.536 12.668 12.076 11.936 12.076 10.904C12.076 9.644 11.212 8.96 9.472 8.96H4.36V17H9.748ZM6.604 10.988H9.172C9.64 10.988 9.82 11.132 9.82 11.504C9.82 11.876 9.688 12.008 9.232 12.008H6.604V10.988ZM6.604 13.856H9.46C10.012 13.856 10.168 13.964 10.168 14.408C10.168 14.864 10 14.972 9.46 14.972H6.604V13.856ZM16.3584 17.12C18.3984 17.12 19.6824 16.172 19.6824 14.828V14.684H17.4264V14.816C17.4264 15.176 17.1864 15.332 16.2744 15.332C15.3144 15.332 14.9904 15.128 14.9544 14.396H19.6944C19.7184 14.18 19.7304 14.024 19.7304 13.82C19.7304 11.876 18.3984 10.832 16.3104 10.832C14.2944 10.832 12.8664 12.008 12.8664 13.976C12.8664 16.244 14.3064 17.12 16.3584 17.12ZM16.2624 12.56C17.1024 12.56 17.4624 12.74 17.5464 13.256H14.9904C15.0864 12.74 15.4344 12.56 16.2624 12.56Z" fill="white"/>
<path d="M4 18.5H19.9704V19.1H4V18.5Z" fill="white"/>
<a href="https://www.behance.net/audreyoluchioji">
<rect fill="black" fill-opacity="0" y="0.12" width="15.9704" height="14.76"/>
</a>
<path d="M15.5668 9.89733H13.3441V9.34533H15.5668V9.89733ZM11.8646 12.1613C12.0077 12.3836 12.0792 12.6533 12.0792 12.9698C12.0792 13.2973 11.9983 13.5911 11.8343 13.8507C11.7332 14.0189 11.6005 14.166 11.4437 14.284C11.2598 14.4228 11.0467 14.5177 10.8206 14.5613C10.564 14.6125 10.303 14.6373 10.0414 14.6356H7.55566V9.116H10.2214C10.893 9.12711 11.369 9.32178 11.6508 9.704C11.8197 9.93867 11.9032 10.2196 11.9032 10.5471C11.9032 10.8844 11.8188 11.1542 11.6481 11.3596C11.5534 11.4747 11.4134 11.5791 11.2281 11.6738C11.5086 11.7764 11.7219 11.9382 11.8646 12.1613ZM8.829 11.2924H9.99655C10.2366 11.2924 10.4308 11.2467 10.5801 11.1556C10.7294 11.0644 10.8041 10.9022 10.8041 10.6702C10.8041 10.4133 10.7054 10.2431 10.5077 10.1609C10.3374 10.104 10.1201 10.0747 9.85611 10.0747H8.82855L8.829 11.2924ZM10.9166 12.8911C10.9166 12.6044 10.7992 12.4062 10.5654 12.3C10.4343 12.2391 10.2499 12.2084 10.0134 12.2062H8.82855V13.6773H9.99566C10.2352 13.6773 10.4206 13.6458 10.5543 13.5804C10.7957 13.46 10.917 13.2311 10.917 12.8911H10.9166ZM16.3912 11.9933C16.4179 12.1738 16.4303 12.4356 16.4254 12.7782H13.5468C13.5628 13.1756 13.6997 13.4533 13.9601 13.6124C14.117 13.712 14.3068 13.7609 14.5299 13.7609C14.7646 13.7609 14.9561 13.7013 15.1032 13.5791C15.1837 13.5147 15.2543 13.4236 15.3157 13.308H16.3708C16.3432 13.5427 16.2161 13.7809 15.9881 14.0227C15.6343 14.4071 15.1383 14.6 14.501 14.6C13.9748 14.6 13.5108 14.4373 13.1081 14.1133C12.7068 13.788 12.5054 13.2609 12.5054 12.5293C12.5054 11.8436 12.6863 11.3187 13.0494 10.9533C13.4139 10.5871 13.8841 10.4049 14.4637 10.4049C14.8077 10.4049 15.117 10.4662 15.3934 10.5898C15.669 10.7133 15.8966 10.908 16.0761 11.1751C16.2383 11.4107 16.3428 11.6827 16.3917 11.9929L16.3912 11.9933ZM15.3526 12.096C15.3334 11.8213 15.2414 11.6133 15.0766 11.4711C14.9126 11.3289 14.7077 11.2573 14.4637 11.2573C14.1979 11.2573 13.9926 11.3338 13.8472 11.484C13.7006 11.6338 13.609 11.8378 13.5717 12.096H15.3526Z" fill="black"/>
</svg>
