<svg width="24" height="24" viewBox="0 0 24 24" fill="none" xmlns="http://www.w3.org/2000/svg">
<circle cx="12" cy="12" r="11.75" stroke="#000113" stroke-width="0.5"/>
<path d="M16.4263 12.764V16.0436H14.525V12.9836C14.525 12.2147 14.2499 11.6902 13.5619 11.6902C13.0366 11.6902 12.7237 12.044 12.5863 12.3858C12.5361 12.508 12.5232 12.6782 12.5232 12.8493V16.0436H10.621C10.621 16.0436 10.6468 10.8613 10.621 10.324H12.5232V11.1347L12.5108 11.1533H12.5232V11.1347C12.7757 10.7458 13.2268 10.1898 14.237 10.1898C15.4881 10.1898 16.4263 11.0076 16.4263 12.764ZM8.63166 7.56711C7.98144 7.56711 7.55566 7.99378 7.55566 8.55511C7.55566 9.104 7.969 9.54356 8.60678 9.54356H8.61922C9.28278 9.54356 9.69478 9.104 9.69478 8.55511C9.68322 7.99378 9.28322 7.56711 8.63211 7.56711H8.63166ZM7.66855 16.0436H9.56989V10.324H7.66855V16.0436Z" fill="#000113"/>
</svg>
