<svg width="24" height="24" viewBox="0 0 24 24" fill="none" xmlns="http://www.w3.org/2000/svg">
<circle cx="12" cy="12" r="11.75" stroke="#000113" stroke-width="0.5"/>
<path d="M12.692 16.12C15.56 16.12 17.192 14.488 17.192 11.98C17.192 9.472 15.56 7.84 12.692 7.84C9.896 7.84 8.24 9.472 8.24 11.98C8.24 14.488 9.896 16.12 12.692 16.12ZM12.692 13.96C11.06 13.96 10.64 13.576 10.64 11.98C10.64 10.384 11.06 10 12.692 10C14.324 10 14.792 10.384 14.792 11.98C14.792 13.576 14.324 13.96 12.692 13.96Z" fill="white"/>
<path d="M8 17.5H17.432V18.1H8V17.5Z" fill="white"/>
<a href="https://www.dribbble.com/AudreyOluchiOji">
<rect fill="black" fill-opacity="0" y="0.12" width="9.432" height="14.76"/>
</a>
<path d="M12.0001 7.55556C9.54651 7.55556 7.55566 9.5464 7.55566 12C7.55566 14.4536 9.54651 16.4444 12.0001 16.4444C14.4489 16.4444 16.4446 14.4536 16.4446 12C16.4446 9.5464 14.4489 7.55556 12.0001 7.55556ZM14.9358 9.60424C15.466 10.2502 15.7842 11.0745 15.7938 11.9663C15.6685 11.9422 14.4151 11.6867 13.1522 11.8457C13.1233 11.7831 13.0992 11.7156 13.0703 11.6481C12.9931 11.4649 12.9063 11.2769 12.8196 11.0986C14.2175 10.5298 14.8538 9.7103 14.9358 9.60424ZM12.0001 8.21114C12.9642 8.21114 13.8463 8.57267 14.5164 9.16558C14.4489 9.26199 13.8753 10.0284 12.5255 10.5346C11.9037 9.39214 11.2144 8.45698 11.1083 8.31237C11.3927 8.24488 11.6916 8.21114 12.0001 8.21114ZM10.3853 8.56785C10.4865 8.70282 11.1614 9.64281 11.7928 10.7611C10.0189 11.2335 8.45227 11.2239 8.28355 11.2239C8.52939 10.0477 9.32477 9.06918 10.3853 8.56785ZM8.2016 12.0048C8.2016 11.9663 8.2016 11.9277 8.2016 11.8891C8.3655 11.8939 10.2069 11.9181 12.1013 11.3492C12.2122 11.5613 12.3134 11.7783 12.4098 11.9952C12.3616 12.0096 12.3086 12.0241 12.2604 12.0386C10.3033 12.67 9.2621 14.3958 9.17534 14.5404C8.57278 13.8703 8.2016 12.9786 8.2016 12.0048ZM12.0001 15.7985C11.1228 15.7985 10.313 15.4996 9.67183 14.9983C9.73933 14.8585 10.5106 13.3738 12.6509 12.6267C12.6605 12.6218 12.6653 12.6218 12.675 12.617C13.21 14.0005 13.427 15.1622 13.4848 15.4948C13.0269 15.6925 12.5255 15.7985 12.0001 15.7985ZM14.1163 15.1478C14.0777 14.9164 13.8753 13.8077 13.3788 12.4435C14.5694 12.2555 15.6106 12.564 15.7408 12.6074C15.5769 13.6631 14.9695 14.5741 14.1163 15.1478Z" fill="black"/>
</svg>
