<svg width="871" height="229" viewBox="0 0 871 229" fill="none" xmlns="http://www.w3.org/2000/svg">
<path d="M24.0859 68.72C38.3419 68.72 44.3179 61.952 44.3179 54.608C44.3179 47.552 39.5659 43.16 29.9179 41.432L18.1819 39.416C12.4939 38.192 10.0459 36.824 10.0459 32.648C10.0459 28.328 13.5019 26.168 22.2859 26.168C32.2939 26.168 35.8219 29.12 35.8219 35.024V35.96H43.5259V35.528C43.5259 26.096 37.1179 19.04 23.0059 19.04C8.02991 19.04 2.26991 26.096 2.26991 33.08C2.26991 41 8.02991 44.744 16.1659 46.184L27.9739 48.128C34.0939 49.28 36.5419 50.864 36.5419 55.04C36.5419 59.576 33.3019 61.592 24.0859 61.592C13.5019 61.592 10.1179 58.712 10.1179 52.952V51.8H2.34191V52.232C2.34191 62.384 9.68591 68.72 24.0859 68.72ZM57.6143 68V47.192H85.9823V68H93.6863V19.76H85.9823V40.208H57.6143V19.76H49.8383V68H57.6143ZM124.643 68.72C139.907 68.72 149.843 58.928 149.843 43.88C149.843 28.832 139.907 19.04 124.643 19.04C109.523 19.04 99.5155 28.832 99.5155 43.88C99.5155 58.928 109.523 68.72 124.643 68.72ZM124.643 61.232C113.195 61.232 107.723 55.904 107.723 43.88C107.723 31.856 113.195 26.456 124.643 26.456C136.091 26.456 141.635 31.856 141.635 43.88C141.635 55.904 136.091 61.232 124.643 61.232ZM177.188 68L186.332 39.92L189.788 27.536H190.436L193.964 39.92L203.684 68H215.132L227.228 19.76H218.732L211.532 50.288L209.516 60.512H208.94L206.204 50.288L195.836 19.76H184.532L174.812 50.288L172.22 60.512H171.644L169.484 50.288L161.636 19.76H152.996L165.74 68H177.188ZM255.279 68.72C268.959 68.72 278.391 61.52 278.391 49.928V48.992H269.823V49.928C269.823 57.344 265.143 61.232 255.351 61.232C244.047 61.232 238.575 55.904 238.575 43.88C238.575 31.856 244.047 26.456 255.351 26.456C265.143 26.456 269.823 30.416 269.823 37.76V38.768H278.391V37.76C278.391 26.24 268.887 19.04 255.279 19.04C240.303 19.04 230.367 28.832 230.367 43.88C230.367 58.928 240.303 68.72 255.279 68.72ZM289.16 68L294.704 55.472H320.192L325.736 68H334.52L312.992 19.76H302.048L280.52 68H289.16ZM304.352 33.8L307.16 26.96H307.736L310.544 33.8L317.096 48.488H297.8L304.352 33.8ZM358.352 68.72C372.608 68.72 378.584 61.952 378.584 54.608C378.584 47.552 373.832 43.16 364.184 41.432L352.448 39.416C346.76 38.192 344.312 36.824 344.312 32.648C344.312 28.328 347.768 26.168 356.552 26.168C366.56 26.168 370.088 29.12 370.088 35.024V35.96H377.792V35.528C377.792 26.096 371.384 19.04 357.272 19.04C342.296 19.04 336.536 26.096 336.536 33.08C336.536 41 342.296 44.744 350.432 46.184L362.24 48.128C368.36 49.28 370.808 50.864 370.808 55.04C370.808 59.576 367.568 61.592 358.352 61.592C347.768 61.592 344.384 58.712 344.384 52.952V51.8H336.608V52.232C336.608 62.384 343.952 68.72 358.352 68.72ZM422.696 68V61.016H391.88V47.192H421.616V40.28H391.88V26.744H422.696V19.76H384.104V68H422.696ZM451.144 68C466.12 68 475.552 58.784 475.552 43.88C475.552 28.976 466.12 19.76 451.144 19.76H429.184V68H451.144ZM451.144 26.744C462.304 26.744 467.344 31.496 467.344 43.88C467.344 56.264 462.304 61.016 451.144 61.016H436.888V26.744H451.144Z" fill="#000113"/>
<path d="M195.815 191V164.74H224.415C243.785 164.74 257.045 153.56 257.045 134.32C257.045 114.95 243.785 103.9 224.415 103.9H181.775V191H195.815ZM223.115 116.51C236.245 116.51 243.005 121.45 243.005 134.32C243.005 147.19 236.245 152.13 223.115 152.13H195.815V116.51H223.115ZM279.478 191V157.2H295.468C306.388 157.2 310.418 160.06 314.318 166.95L328.228 191H344.348L329.788 165.78C326.668 160.32 323.548 156.42 316.788 154.6V153.69C333.168 152.78 342.658 143.94 342.658 129.51C342.658 113.26 330.438 103.9 310.678 103.9H265.438V191H279.478ZM279.478 116.51H310.548C322.248 116.51 328.098 120.8 328.098 131.46C328.098 142.38 322.248 146.41 310.548 146.41H279.478V116.51ZM395.551 192.3C423.111 192.3 441.051 174.62 441.051 147.45C441.051 120.28 423.111 102.6 395.551 102.6C368.251 102.6 350.181 120.28 350.181 147.45C350.181 174.62 368.251 192.3 395.551 192.3ZM395.551 178.78C374.881 178.78 365.001 169.16 365.001 147.45C365.001 125.74 374.881 115.99 395.551 115.99C416.221 115.99 426.231 125.74 426.231 147.45C426.231 169.16 416.221 178.78 395.551 178.78ZM484.184 192.3C510.834 192.3 520.974 178.52 520.974 158.5V103.9H506.284V158.63C506.284 172.41 501.214 178.78 484.184 178.78C467.154 178.78 462.344 172.28 462.344 157.98V153.82H447.524V157.85C447.524 178.39 457.794 192.3 484.184 192.3ZM603.116 191V178.39H547.476V153.43H601.166V140.95H547.476V116.51H603.116V103.9H533.436V191H603.116ZM656.431 192.3C681.131 192.3 698.161 179.3 698.161 158.37V156.68H682.691V158.37C682.691 171.76 674.241 178.78 656.561 178.78C636.151 178.78 626.271 169.16 626.271 147.45C626.271 125.74 636.151 115.99 656.561 115.99C674.241 115.99 682.691 123.14 682.691 136.4V138.22H698.161V136.4C698.161 115.6 681.001 102.6 656.431 102.6C629.391 102.6 611.451 120.28 611.451 147.45C611.451 174.62 629.391 192.3 656.431 192.3ZM751.794 191V116.51H785.984V103.9H703.564V116.51H737.884V191H751.794ZM830.727 192.3C856.467 192.3 867.257 180.08 867.257 166.82C867.257 154.08 858.677 146.15 841.257 143.03L820.067 139.39C809.797 137.18 805.377 134.71 805.377 127.17C805.377 119.37 811.617 115.47 827.477 115.47C845.547 115.47 851.917 120.8 851.917 131.46V133.15H865.827V132.37C865.827 115.34 854.257 102.6 828.777 102.6C801.737 102.6 791.337 115.34 791.337 127.95C791.337 142.25 801.737 149.01 816.427 151.61L837.747 155.12C848.797 157.2 853.217 160.06 853.217 167.6C853.217 175.79 847.367 179.43 830.727 179.43C811.617 179.43 805.507 174.23 805.507 163.83V161.75H791.467V162.53C791.467 180.86 804.727 192.3 830.727 192.3Z" fill="#1A23FF"/>
</svg>
