<svg width="42" height="18" viewBox="0 0 42 18" fill="none" xmlns="http://www.w3.org/2000/svg">
<g filter="url(#filter0_f_605_387)">
<mask id="path-1-inside-1_605_387" fill="white">
<path fill-rule="evenodd" clip-rule="evenodd" d="M34.6565 13.9167C35.034 14.9848 36.0526 15.75 37.25 15.75C38.7688 15.75 40 14.5188 40 13C40 11.4812 38.7688 10.25 37.25 10.25C36.0526 10.25 35.034 11.0153 34.6565 12.0833H-25.0829C-25.5892 12.0833 -25.9996 12.4937 -25.9996 13C-25.9996 13.5063 -25.5892 13.9167 -25.0829 13.9167H34.6565Z"/>
</mask>
<path d="M34.6565 13.9167V13.4167H35.0101L35.1279 13.75L34.6565 13.9167ZM34.6565 12.0833L35.1279 12.25L35.0101 12.5833H34.6565V12.0833ZM35.1279 13.75C35.437 14.6246 36.2711 15.25 37.25 15.25V16.25C35.8341 16.25 34.631 15.3449 34.185 14.0833L35.1279 13.75ZM37.25 15.25C38.4926 15.25 39.5 14.2427 39.5 13H40.5C40.5 14.7949 39.0449 16.25 37.25 16.25V15.25ZM39.5 13C39.5 11.7574 38.4926 10.75 37.25 10.75V9.75002C39.0449 9.75002 40.5 11.2051 40.5 13H39.5ZM37.25 10.75C36.2711 10.75 35.437 11.3754 35.1279 12.25L34.1851 11.9167C34.631 10.6551 35.8342 9.75002 37.25 9.75002V10.75ZM34.6565 12.5833H-25.0829V11.5833H34.6565V12.5833ZM-25.0829 12.5833C-25.313 12.5833 -25.4996 12.7699 -25.4996 13H-26.4996C-26.4996 12.2176 -25.8653 11.5833 -25.0829 11.5833V12.5833ZM-25.4996 13C-25.4996 13.2301 -25.313 13.4167 -25.0829 13.4167V14.4167C-25.8653 14.4167 -26.4996 13.7824 -26.4996 13H-25.4996ZM-25.0829 13.4167H34.6565V14.4167H-25.0829V13.4167Z" fill="#1AE3FF" mask="url(#path-1-inside-1_605_387)"/>
<mask id="path-3-inside-2_605_387" fill="white">
<path fill-rule="evenodd" clip-rule="evenodd" d="M-20.6565 3.83334C-21.034 2.76525 -22.0526 2.00002 -23.25 2.00002C-24.7688 2.00002 -26 3.23123 -26 4.75002C-26 6.2688 -24.7688 7.50002 -23.25 7.50002C-22.0526 7.50002 -21.034 6.73477 -20.6565 5.66667H34.6565C35.034 6.73477 36.0526 7.50002 37.25 7.50002C38.7688 7.50002 40 6.2688 40 4.75002C40 3.23123 38.7688 2.00002 37.25 2.00002C36.0526 2.00002 35.034 2.76525 34.6565 3.83334H-20.6565Z"/>
</mask>
<path d="M-20.6565 3.83334V4.33334H-21.0101L-21.1279 3.99996L-20.6565 3.83334ZM-20.6565 5.66667L-21.1279 5.50005L-21.0101 5.16667H-20.6565V5.66667ZM34.6565 5.66667V5.16667H35.0101L35.1279 5.50005L34.6565 5.66667ZM34.6565 3.83334L35.1279 3.99996L35.0101 4.33334H34.6565V3.83334ZM-21.1279 3.99996C-21.437 3.1254 -22.2711 2.50002 -23.25 2.50002V1.50002C-21.8342 1.50002 -20.631 2.4051 -20.1851 3.66671L-21.1279 3.99996ZM-23.25 2.50002C-24.4926 2.50002 -25.5 3.50737 -25.5 4.75002H-26.5C-26.5 2.95509 -25.0449 1.50002 -23.25 1.50002V2.50002ZM-25.5 4.75002C-25.5 5.99266 -24.4926 7.00002 -23.25 7.00002V8.00002C-25.0449 8.00002 -26.5 6.54494 -26.5 4.75002H-25.5ZM-23.25 7.00002C-22.2711 7.00002 -21.437 6.37462 -21.1279 5.50005L-20.1851 5.83329C-20.631 7.09492 -21.8341 8.00002 -23.25 8.00002V7.00002ZM-20.6565 5.16667H34.6565V6.16667H-20.6565V5.16667ZM35.1279 5.50005C35.437 6.37462 36.2711 7.00002 37.25 7.00002V8.00002C35.8341 8.00002 34.631 7.09492 34.1851 5.83329L35.1279 5.50005ZM37.25 7.00002C38.4926 7.00002 39.5 5.99266 39.5 4.75002H40.5C40.5 6.54494 39.0449 8.00002 37.25 8.00002V7.00002ZM39.5 4.75002C39.5 3.50737 38.4926 2.50002 37.25 2.50002V1.50002C39.0449 1.50002 40.5 2.95509 40.5 4.75002H39.5ZM37.25 2.50002C36.2711 2.50002 35.437 3.1254 35.1279 3.99996L34.1851 3.66671C34.631 2.4051 35.8342 1.50002 37.25 1.50002V2.50002ZM34.6565 4.33334H-20.6565V3.33334H34.6565V4.33334Z" fill="#1A23FF" mask="url(#path-3-inside-2_605_387)"/>
</g>
<defs>
<filter id="filter0_f_605_387" x="-28" y="1.52588e-05" width="70" height="17.75" filterUnits="userSpaceOnUse" color-interpolation-filters="sRGB">
<feFlood flood-opacity="0" result="BackgroundImageFix"/>
<feBlend mode="normal" in="SourceGraphic" in2="BackgroundImageFix" result="shape"/>
<feGaussianBlur stdDeviation="1" result="effect1_foregroundBlur_605_387"/>
</filter>
</defs>
</svg>
