<svg width="16" height="16" viewBox="0 0 16 16" fill="none" xmlns="http://www.w3.org/2000/svg">
<circle cx="8" cy="8" r="7.75" stroke="#000113" stroke-width="0.5"/>
<path d="M10.963 6.19463C10.7409 6.29163 10.5057 6.35524 10.265 6.38337C10.5176 6.235 10.7076 5.9997 10.7995 5.72145C10.5601 5.86081 10.299 5.95896 10.027 6.01182C9.91253 5.89188 9.77479 5.79653 9.62222 5.73158C9.46965 5.66662 9.30545 5.63344 9.13963 5.63404C8.46822 5.63404 7.92392 6.17034 7.92392 6.83108C7.92392 6.92471 7.93459 7.01626 7.95533 7.10367C7.47372 7.08077 7.00218 6.95772 6.57079 6.74238C6.1394 6.52704 5.75763 6.22414 5.44985 5.853C5.34195 6.03505 5.28523 6.24287 5.2857 6.45449C5.2857 6.87019 5.50022 7.23671 5.82615 7.45093C5.6334 7.44471 5.44482 7.39325 5.27563 7.30071V7.31552C5.27563 7.89567 5.69489 8.37952 6.25044 8.48974C6.14603 8.51745 6.03847 8.53149 5.93044 8.53152C5.85192 8.53152 5.77578 8.52412 5.70141 8.5093C5.78084 8.74869 5.93284 8.95739 6.13631 9.10644C6.33978 9.25548 6.58462 9.33747 6.83681 9.341C6.40424 9.6742 5.8732 9.8542 5.32718 9.85271C5.22881 9.85271 5.13222 9.84678 5.03711 9.83612C5.59452 10.1889 6.24084 10.3758 6.90052 10.3748C9.13666 10.3748 10.3592 8.55049 10.3592 6.96856L10.355 6.8136C10.5935 6.6458 10.7995 6.43607 10.963 6.19463Z" fill="#000113"/>
</svg>
