<svg width="130" height="254" viewBox="0 0 130 254" fill="none" xmlns="http://www.w3.org/2000/svg">
<g filter="url(#filter0_f_231_1265)">
<path d="M164.387 160.249C146.504 179.151 127.582 193.558 111.503 201.601C103.456 205.627 96.2209 208.007 90.2472 208.62C84.2653 209.233 79.8179 208.057 76.9346 205.33C74.0512 202.602 72.6306 198.226 72.9116 192.22C73.1921 186.221 75.168 178.866 78.7412 170.608C85.8807 154.108 99.2168 134.416 117.099 115.513C134.982 96.6109 153.904 82.204 169.983 74.161C178.03 70.1356 185.265 67.7551 191.239 67.1425C197.221 66.5291 201.668 67.705 204.551 70.4328C207.435 73.1605 208.855 77.5359 208.574 83.5426C208.294 89.5411 206.318 96.8966 202.745 105.155C195.605 121.655 182.269 141.346 164.387 160.249Z" stroke="#00068A" stroke-width="4"/>
<path d="M144.828 149.257C126.946 168.16 108.023 182.567 91.9444 190.61C83.897 194.635 76.6623 197.016 70.6886 197.628C64.7067 198.241 60.2593 197.066 57.376 194.338C54.4926 191.61 53.072 187.235 53.353 181.228C53.6335 175.229 55.6094 167.874 59.1826 159.616C66.3221 143.116 79.6582 123.424 97.5406 104.522C115.423 85.6192 134.345 71.2123 150.424 63.1693C158.472 59.1439 165.706 56.7634 171.68 56.1508C177.662 55.5374 182.109 56.7133 184.993 59.4411C187.876 62.1688 189.297 66.5442 189.016 72.5509C188.735 78.5494 186.759 85.9049 183.186 94.163C176.047 110.663 162.71 130.355 144.828 149.257Z" stroke="#00068A" stroke-width="4"/>
<path d="M125.269 138.266C107.387 157.168 88.4648 171.575 72.3858 179.618C64.3384 183.643 57.1037 186.024 51.13 186.636C45.1481 187.25 40.7007 186.074 37.8174 183.346C34.934 180.618 33.5134 176.243 33.7944 170.236C34.0749 164.238 36.0509 156.882 39.6241 148.624C46.7635 132.124 60.0996 112.433 77.982 93.5301C95.8643 74.6276 114.787 60.2207 130.866 52.1777C138.913 48.1524 146.148 45.7718 152.121 45.1592C158.103 44.5458 162.551 45.7217 165.434 48.4495C168.317 51.1772 169.738 55.5526 169.457 61.5593C169.177 67.5578 167.201 74.9134 163.627 83.1714C156.488 99.6715 143.152 119.363 125.269 138.266Z" stroke="#00068A" stroke-width="4"/>
</g>
<defs>
<filter id="filter0_f_231_1265" x="19.7598" y="31.0009" width="202.85" height="191.777" filterUnits="userSpaceOnUse" color-interpolation-filters="sRGB">
<feFlood flood-opacity="0" result="BackgroundImageFix"/>
<feBlend mode="normal" in="SourceGraphic" in2="BackgroundImageFix" result="shape"/>
<feGaussianBlur stdDeviation="6" result="effect1_foregroundBlur_231_1265"/>
</filter>
</defs>
</svg>
