<svg width="52" height="110" viewBox="0 0 52 110" fill="none" xmlns="http://www.w3.org/2000/svg">
<g filter="url(#filter0_f_605_411)">
<path d="M11.6767 71.3632C3.0572 77.3874 -5.62169 81.5581 -12.6755 83.4398C-16.204 84.381 -19.3042 84.7436 -21.7772 84.4931C-24.2517 84.2424 -26.0446 83.3856 -27.0536 81.942C-28.0625 80.4984 -28.251 78.5203 -27.636 76.1103C-27.0213 73.7019 -25.6154 70.9151 -23.5189 67.9249C-19.3277 61.9474 -12.4283 55.2305 -3.80885 49.2063C4.81064 43.1821 13.4895 39.0113 20.5433 37.1297C24.0719 36.1884 27.1721 35.8259 29.645 36.0764C32.1196 36.327 33.9125 37.1839 34.9214 38.6275C35.9303 40.0711 36.1188 42.0492 35.5038 44.4592C34.8892 46.8676 33.4833 49.6544 31.3867 52.6445C27.1955 58.622 20.2962 65.339 11.6767 71.3632Z" stroke="#00068A" stroke-width="0.8"/>
<path d="M7.65619 66.0147C-0.963306 72.0389 -9.6422 76.2096 -16.696 78.0912C-20.2246 79.0325 -23.3247 79.3951 -25.7977 79.1446C-28.2723 78.8939 -30.0651 78.0371 -31.0741 76.5935C-32.083 75.1499 -32.2715 73.1717 -31.6565 70.7617C-31.0418 68.3533 -29.6359 65.5666 -27.5394 62.5764C-23.3482 56.5989 -16.4489 49.882 -7.82936 43.8578C0.790129 37.8336 9.46902 33.6628 16.5228 31.7812C20.0514 30.8399 23.1516 30.4774 25.6245 30.7279C28.0991 30.9785 29.892 31.8354 30.9009 33.279C31.9098 34.7226 32.0983 36.7007 31.4833 39.1107C30.8687 41.5191 29.4628 44.3059 27.3662 47.296C23.175 53.2735 16.2757 59.9905 7.65619 66.0147Z" stroke="#00068A" stroke-width="0.8"/>
<path d="M3.63568 60.6659C-4.98381 66.6901 -13.6627 70.8609 -20.7165 72.7425C-24.2451 73.6838 -27.3452 74.0463 -29.8182 73.7958C-32.2928 73.5452 -34.0856 72.6883 -35.0946 71.2447C-36.1035 69.8011 -36.292 67.823 -35.677 65.413C-35.0623 63.0046 -33.6564 60.2178 -31.5599 57.2277C-27.3687 51.2502 -20.4694 44.5332 -11.8499 38.509C-3.23038 32.4848 5.44851 28.3141 12.5023 26.4324C16.0309 25.4912 19.1311 25.1286 21.604 25.3791C24.0786 25.6298 25.8714 26.4866 26.8804 27.9302C27.8893 29.3738 28.0778 31.3519 27.4628 33.7619C26.8482 36.1703 25.4423 38.9571 23.3457 41.9473C19.1545 47.9248 12.2552 54.6417 3.63568 60.6659Z" stroke="#00068A" stroke-width="0.8"/>
</g>
<defs>
<filter id="filter0_f_605_411" x="-39.4287" y="21.902" width="78.6846" height="66.0681" filterUnits="userSpaceOnUse" color-interpolation-filters="sRGB">
<feFlood flood-opacity="0" result="BackgroundImageFix"/>
<feBlend mode="normal" in="SourceGraphic" in2="BackgroundImageFix" result="shape"/>
<feGaussianBlur stdDeviation="1.5" result="effect1_foregroundBlur_605_411"/>
</filter>
</defs>
</svg>
