<svg width="700" height="211" viewBox="0 0 700 211" fill="none" xmlns="http://www.w3.org/2000/svg">
<path d="M49.2609 123.3C73.9609 123.3 90.9909 110.3 90.9909 89.37V87.68H75.5209V89.37C75.5209 102.76 67.0709 109.78 49.3909 109.78C28.9809 109.78 19.1009 100.16 19.1009 78.45C19.1009 56.74 28.9809 46.99 49.3909 46.99C67.0709 46.99 75.5209 54.14 75.5209 67.4V69.22H90.9909V67.4C90.9909 46.6 73.8309 33.6 49.2609 33.6C22.2209 33.6 4.28086 51.28 4.28086 78.45C4.28086 105.62 22.2209 123.3 49.2609 123.3ZM144.104 123.3C171.664 123.3 189.604 105.62 189.604 78.45C189.604 51.28 171.664 33.6 144.104 33.6C116.804 33.6 98.734 51.28 98.734 78.45C98.734 105.62 116.804 123.3 144.104 123.3ZM144.104 109.78C123.434 109.78 113.554 100.16 113.554 78.45C113.554 56.74 123.434 46.99 144.104 46.99C164.774 46.99 174.784 56.74 174.784 78.45C174.784 100.16 164.774 109.78 144.104 109.78ZM214.017 122V70.91L213.497 55.83H214.537L225.457 71.17L264.717 122H279.797V34.9H265.757V86.38L266.407 102.11H265.367L254.057 85.86L215.057 34.9H199.977V122H214.017ZM336.069 122V47.51H370.259V34.9H287.839V47.51H322.159V122H336.069ZM387.573 122L397.583 99.38H443.603L453.613 122H469.473L430.603 34.9H410.843L371.973 122H387.573ZM415.003 60.25L420.073 47.9H421.113L426.183 60.25L438.013 86.77H403.173L415.003 60.25ZM518.353 123.3C543.053 123.3 560.083 110.3 560.083 89.37V87.68H544.613V89.37C544.613 102.76 536.163 109.78 518.483 109.78C498.073 109.78 488.193 100.16 488.193 78.45C488.193 56.74 498.073 46.99 518.483 46.99C536.163 46.99 544.613 54.14 544.613 67.4V69.22H560.083V67.4C560.083 46.6 542.923 33.6 518.353 33.6C491.313 33.6 473.373 51.28 473.373 78.45C473.373 105.62 491.313 123.3 518.353 123.3ZM613.716 122V47.51H647.906V34.9H565.486V47.51H599.806V122H613.716Z" fill="#000113"/>
<path d="M601.427 190V160.408L601.139 153.424H601.715L604.667 160.408L617.987 187.12H627.347L640.667 160.408L643.619 153.424H644.195L643.907 160.408V190H651.683V141.76H641.099L627.347 169.696L623.099 179.704H622.523L618.131 169.696L604.235 141.76H593.651V190H601.427ZM697.493 190V183.016H666.677V169.192H696.413V162.28H666.677V148.744H697.493V141.76H658.901V190H697.493Z" fill="#1A23FF"/>
</svg>
