<svg width="508" height="235" viewBox="0 0 508 235" fill="none" xmlns="http://www.w3.org/2000/svg">
<path d="M15.8549 122L25.8649 99.38H71.8849L81.8949 122H97.7549L58.8849 34.9H39.1249L0.254883 122H15.8549ZM43.2849 60.25L48.3549 47.9H49.3949L54.4649 60.25L66.2949 86.77H31.4549L43.2849 60.25ZM154.175 122C172.115 122 182.125 112.9 182.125 97.95C182.125 86.51 174.845 78.45 160.025 76.76V75.85C173.285 74.29 179.005 66.62 179.005 56.35C179.005 42.57 168.995 34.9 152.355 34.9H103.605V122H154.175ZM117.515 47.51H150.795C160.545 47.51 165.095 51.28 165.095 59.47C165.095 67.66 160.155 71.43 150.405 71.43H117.515V47.51ZM117.515 83H152.615C162.885 83 168.085 86.9 168.085 96C168.085 105.49 163.015 109.39 152.615 109.39H117.515V83ZM233.988 123.3C261.548 123.3 279.488 105.62 279.488 78.45C279.488 51.28 261.548 33.6 233.988 33.6C206.688 33.6 188.618 51.28 188.618 78.45C188.618 105.62 206.688 123.3 233.988 123.3ZM233.988 109.78C213.318 109.78 203.438 100.16 203.438 78.45C203.438 56.74 213.318 46.99 233.988 46.99C254.658 46.99 264.668 56.74 264.668 78.45C264.668 100.16 254.658 109.78 233.988 109.78ZM330.16 123.3C356.29 123.3 371.11 109.52 371.11 85.86V34.9H357.07V84.95C357.07 102.5 349.27 109.78 330.16 109.78C311.05 109.78 303.25 102.5 303.25 84.95V34.9H289.34V85.86C289.34 109.52 304.16 123.3 330.16 123.3ZM426.842 122V47.51H461.032V34.9H378.612V47.51H412.932V122H426.842Z" fill="#000113"/>
<path d="M409.079 214V184.408L408.791 177.424H409.367L412.319 184.408L425.639 211.12H434.999L448.319 184.408L451.271 177.424H451.847L451.559 184.408V214H459.335V165.76H448.751L434.999 193.696L430.751 203.704H430.175L425.783 193.696L411.887 165.76H401.303V214H409.079ZM505.145 214V207.016H474.329V193.192H504.065V186.28H474.329V172.744H505.145V165.76H466.553V214H505.145Z" fill="#1A23FF"/>
</svg>
