<svg width="101" height="48" viewBox="0 0 101 48" fill="none" xmlns="http://www.w3.org/2000/svg">
<g filter="url(#filter0_f_230_373)">
<mask id="path-1-inside-1_230_373" fill="white">
<path fill-rule="evenodd" clip-rule="evenodd" d="M80.9366 34.9028C81.7889 37.3141 84.0885 39.0417 86.7917 39.0417C90.2204 39.0417 93 36.2621 93 32.8333C93 29.4046 90.2204 26.625 86.7917 26.625C84.0885 26.625 81.7888 28.3526 80.9366 30.7639H-53.9306C-55.0735 30.7639 -56 31.6905 -56 32.8334C-56 33.9763 -55.0735 34.9028 -53.9306 34.9028H80.9366Z"/>
</mask>
<path d="M80.9366 34.9028V33.9028H81.6438L81.8795 34.5696L80.9366 34.9028ZM80.9366 30.7639L81.8794 31.0972L81.6438 31.7639H80.9366V30.7639ZM81.8795 34.5696C82.5949 36.5938 84.5255 38.0417 86.7917 38.0417V40.0417C83.6516 40.0417 80.9829 38.0344 79.9938 35.2361L81.8795 34.5696ZM86.7917 38.0417C89.6681 38.0417 92 35.7098 92 32.8333H94C94 36.8144 90.7727 40.0417 86.7917 40.0417V38.0417ZM92 32.8333C92 29.9569 89.6681 27.625 86.7917 27.625V25.625C90.7727 25.625 94 28.8523 94 32.8333H92ZM86.7917 27.625C84.5255 27.625 82.5949 29.0729 81.8794 31.0972L79.9937 30.4307C80.9828 27.6323 83.6515 25.625 86.7917 25.625V27.625ZM80.9366 31.7639H-53.9306V29.7639H80.9366V31.7639ZM-53.9306 31.7639C-54.5212 31.7639 -55 32.2427 -55 32.8334H-57C-57 31.1382 -55.6258 29.7639 -53.9306 29.7639V31.7639ZM-55 32.8334C-55 33.424 -54.5212 33.9028 -53.9306 33.9028V35.9028C-55.6258 35.9028 -57 34.5286 -57 32.8334H-55ZM-53.9306 33.9028H80.9366V35.9028H-53.9306V33.9028Z" fill="#1AE3FF" mask="url(#path-1-inside-1_230_373)"/>
<mask id="path-3-inside-2_230_373" fill="white">
<path fill-rule="evenodd" clip-rule="evenodd" d="M-43.9366 12.1389C-44.7889 9.72765 -47.0885 8.00008 -49.7917 8.00008C-53.2204 8.00008 -56 10.7796 -56 14.2084C-56 17.6372 -53.2204 20.4167 -49.7917 20.4167C-47.0885 20.4167 -44.7888 18.6891 -43.9366 16.2778H80.9366C81.7889 18.6891 84.0885 20.4167 86.7917 20.4167C90.2204 20.4167 93 17.6371 93 14.2084C93 10.7796 90.2204 8.00004 86.7917 8.00004C84.0885 8.00004 81.7889 9.72763 80.9366 12.1389H-43.9366Z"/>
</mask>
<path d="M-43.9366 12.1389V13.1389H-44.6438L-44.8795 12.4722L-43.9366 12.1389ZM-43.9366 16.2778L-44.8794 15.9446L-44.6438 15.2778H-43.9366V16.2778ZM80.9366 16.2778V15.2778H81.6438L81.8794 15.9446L80.9366 16.2778ZM80.9366 12.1389L81.8794 12.4722L81.6438 13.1389H80.9366V12.1389ZM-44.8795 12.4722C-45.5949 10.4479 -47.5255 9.00008 -49.7917 9.00008V7.00008C-46.6516 7.00008 -43.9829 9.00735 -42.9938 11.8057L-44.8795 12.4722ZM-49.7917 9.00008C-52.6681 9.00008 -55 11.3319 -55 14.2084H-57C-57 10.2274 -53.7727 7.00008 -49.7917 7.00008V9.00008ZM-55 14.2084C-55 17.0849 -52.6681 19.4167 -49.7917 19.4167V21.4167C-53.7727 21.4167 -57 18.1895 -57 14.2084H-55ZM-49.7917 19.4167C-47.5255 19.4167 -45.5949 17.9688 -44.8794 15.9446L-42.9937 16.6111C-43.9828 19.4094 -46.6515 21.4167 -49.7917 21.4167V19.4167ZM-43.9366 15.2778H80.9366V17.2778H-43.9366V15.2778ZM81.8794 15.9446C82.5949 17.9688 84.5255 19.4167 86.7917 19.4167V21.4167C83.6516 21.4167 80.9828 19.4094 79.9938 16.6111L81.8794 15.9446ZM86.7917 19.4167C89.6681 19.4167 92 17.0849 92 14.2084H94C94 18.1894 90.7727 21.4167 86.7917 21.4167V19.4167ZM92 14.2084C92 11.3319 89.6681 9.00004 86.7917 9.00004V7.00004C90.7727 7.00004 94 10.2273 94 14.2084H92ZM86.7917 9.00004C84.5255 9.00004 82.5949 10.4479 81.8794 12.4722L79.9938 11.8057C80.9828 9.00733 83.6516 7.00004 86.7917 7.00004V9.00004ZM80.9366 13.1389H-43.9366V11.1389H80.9366V13.1389Z" fill="#1A23FF" mask="url(#path-3-inside-2_230_373)"/>
</g>
<defs>
<filter id="filter0_f_230_373" x="-64" y="0" width="165" height="47.0417" filterUnits="userSpaceOnUse" color-interpolation-filters="sRGB">
<feFlood flood-opacity="0" result="BackgroundImageFix"/>
<feBlend mode="normal" in="SourceGraphic" in2="BackgroundImageFix" result="shape"/>
<feGaussianBlur stdDeviation="4" result="effect1_foregroundBlur_230_373"/>
</filter>
</defs>
</svg>
