<svg width="29" height="29" viewBox="0 0 29 29" fill="none" xmlns="http://www.w3.org/2000/svg">
<path d="M7.25033 8.45837H13.292C13.6125 8.45837 13.9198 8.58568 14.1464 8.81229C14.373 9.03889 14.5003 9.34624 14.5003 9.66671C14.5003 9.98718 14.373 10.2945 14.1464 10.5211C13.9198 10.7477 13.6125 10.875 13.292 10.875H7.25033C6.92986 10.875 6.62251 10.7477 6.3959 10.5211C6.1693 10.2945 6.04199 9.98718 6.04199 9.66671C6.04199 9.34624 6.1693 9.03889 6.3959 8.81229C6.62251 8.58568 6.92986 8.45837 7.25033 8.45837V8.45837ZM15.7087 18.125H21.7503C22.0708 18.125 22.3781 18.2523 22.6047 18.479C22.8314 18.7056 22.9587 19.0129 22.9587 19.3334C22.9587 19.6538 22.8314 19.9612 22.6047 20.1878C22.3781 20.4144 22.0708 20.5417 21.7503 20.5417H15.7087C15.3882 20.5417 15.0808 20.4144 14.8542 20.1878C14.6276 19.9612 14.5003 19.6538 14.5003 19.3334C14.5003 19.0129 14.6276 18.7056 14.8542 18.479C15.0808 18.2523 15.3882 18.125 15.7087 18.125ZM7.25033 13.2917H21.7503C22.0708 13.2917 22.3781 13.419 22.6047 13.6456C22.8314 13.8722 22.9587 14.1796 22.9587 14.5C22.9587 14.8205 22.8314 15.1279 22.6047 15.3545C22.3781 15.5811 22.0708 15.7084 21.7503 15.7084H7.25033C6.92986 15.7084 6.62251 15.5811 6.3959 15.3545C6.1693 15.1279 6.04199 14.8205 6.04199 14.5C6.04199 14.1796 6.1693 13.8722 6.3959 13.6456C6.62251 13.419 6.92986 13.2917 7.25033 13.2917Z" fill="#00070F"/>
</svg>
